<?xml version="1.0" encoding="UTF-8"?>
<svg width="85px" height="85px" viewBox="0 0 85 85" version="1.1" xmlns="http://www.w3.org/2000/svg" xmlns:xlink="http://www.w3.org/1999/xlink">
    <!-- Generator: Sketch 49.2 (51160) - http://www.bohemiancoding.com/sketch -->
    <title>canvas</title>
    <desc>Created with Sketch.</desc>
    <defs></defs>
    <g id="Page-1" stroke="none" stroke-width="1" fill="none" fill-rule="evenodd">
        <g id="canvas" transform="translate(-1.000000, -1.000000)" fill="#FFFFFF" fill-rule="nonzero">
            <path d="M13.24,43.11 C13.2406715,36.9478312 8.64603871,31.7525927 2.53,31 C0.484725786,38.9370237 0.484725786,47.2629763 2.53,55.2 C8.63847921,54.4483448 13.2305804,49.2645443 13.24,43.11 Z" id="Shape"></path>
            <circle id="Oval" cx="20.33" cy="43.11" r="3.83"></circle>
            <path d="M73.14,43.11 C73.1437515,49.2649878 77.7317102,54.4532402 83.84,55.21 C85.8865818,47.2731421 85.8865818,38.9468579 83.84,31.01 C77.7317102,31.7667598 73.1437515,36.9550122 73.14,43.11 Z" id="Shape"></path>
            <circle id="Oval" cx="66.05" cy="43.11" r="3.83"></circle>
            <path d="M43.11,73.17 C36.9478312,73.1693285 31.7525927,77.7639613 31,83.88 C38.9370237,85.9252742 47.2629763,85.9252742 55.2,83.88 C54.4483448,77.7715208 49.2645443,73.1794196 43.11,73.17 Z" id="Shape"></path>
            <circle id="Oval" cx="43.11" cy="66.08" r="3.82"></circle>
            <path d="M43.11,13.24 C49.2683569,13.2356231 54.4578742,8.64225704 55.21,2.53 C47.2727557,0.486466567 38.9472443,0.486466567 31.01,2.53 C31.7621258,8.64225704 36.9516431,13.2356231 43.11,13.24 Z" id="Shape"></path>
            <circle id="Oval" cx="43.11" cy="20.33" r="3.82"></circle>
            <path d="M64.33,64.33 C59.9785248,68.6819788 59.5497659,75.5935727 63.33,80.45 C70.3909639,76.2841858 76.2783121,70.3933967 80.44,63.33 C75.5853704,59.5557155 68.6805969,59.9843172 64.33,64.33 Z" id="Shape"></path>
            <circle id="Oval" transform="translate(59.312792, 59.305608) rotate(-45.010000) translate(-59.312792, -59.305608) " cx="59.3127916" cy="59.3056075" r="3.83"></circle>
            <path d="M22,22 C26.3688906,17.6438974 26.7981227,10.7118 23,5.85 C15.9209712,10.0191585 10.0191585,15.9209712 5.85,23 C10.7118,26.7981227 17.6438974,26.3688906 22,22 Z" id="Shape"></path>
            <circle id="Oval" transform="translate(26.981268, 26.980000) rotate(-45.000000) translate(-26.981268, -26.980000) " cx="26.9812684" cy="26.98" r="3.83"></circle>
            <path d="M64.3,21.92 C68.6505969,26.2656828 75.5553704,26.6942845 80.41,22.92 C76.2497597,15.8614923 70.3660743,9.97436612 63.31,5.81 C59.5330701,10.6621749 59.9573762,17.5667921 64.3,21.92 Z" id="Shape"></path>
            <circle id="Oval" transform="translate(59.285611, 26.934701) rotate(-45.010000) translate(-59.285611, -26.934701) " cx="59.2856108" cy="26.9347009" r="3.83"></circle>
            <path d="M21.94,64.28 C17.5894031,59.9343172 10.6846296,59.5057155 5.83,63.28 C9.99203634,70.343127 15.879306,76.2338375 22.94,80.4 C26.7202341,75.5435727 26.2914752,68.6319788 21.94,64.28 Z" id="Shape"></path>
            <circle id="Oval" transform="translate(26.963591, 59.266225) rotate(-45.010000) translate(-26.963591, -59.266225) " cx="26.9635908" cy="59.2662246" r="3.83"></circle>
        </g>
    </g>
</svg>