<?xml version="1.0" encoding="utf-8"?>
<!-- Generator: Adobe Illustrator 22.0.0, SVG Export Plug-In . SVG Version: 6.00 Build 0)  -->
<svg version="1.1" id="Layer_1" xmlns="http://www.w3.org/2000/svg" xmlns:xlink="http://www.w3.org/1999/xlink" x="0px" y="0px"
	 viewBox="0 0 512 512" style="enable-background:new 0 0 512 512;" xml:space="preserve">
<style type="text/css">
	.st0{clip-path:url(#SVGID_2_);fill:none;stroke:#FFFFFF;stroke-width:7.14728;}
	.st1{fill:#FFFFFF;}
	.st2{fill:none;stroke:#FFFFFF;stroke-width:19.42;}
	.st3{fill:none;stroke:#FFFFFF;stroke-width:14.38093;}
</style>
<g>
	<g>
		<defs>
			<polygon id="SVGID_1_" points="-2.34078,-0.45337 514.17413,-0.45337 514.17413,513.87952 -2.34078,514 			"/>
		</defs>
		<clipPath id="SVGID_2_">
			<use xlink:href="#SVGID_1_"  style="overflow:visible;"/>
		</clipPath>
		<path class="st0" d="M436.87903,255.1281"/>
	</g>
	<path class="st1" d="M215.43416,384.16406c-1.12175,11.99368-5.55807,21.34845-13.28792,28.05725
		c-7.72237,6.74457-17.97594,10.0881-30.81093,10.0881c-8.95955,0-16.85463-2.10657-23.67819-6.3779
		c-6.82379-4.24234-12.07291-10.28229-15.78311-18.09113c-3.71045-7.83035-5.64455-16.93362-5.78828-27.26642v-10.50504
		c0-10.62045,1.85511-19.97519,5.61579-28.03574c3.76749-8.08926,9.16034-14.32343,16.17854-18.70248
		c7.05353-4.38608,15.17177-6.57208,24.3828-6.57208c12.41785,0,22.38374,3.36505,29.96962,10.08109
		c7.58611,6.70859,11.96494,16.23602,13.20168,28.53891h-19.46458c-0.92755-8.0603-3.28604-13.90628-7.04651-17.50153
		c-3.79668-3.56625-9.35475-5.36411-16.6602-5.36411c-8.48491,0-15.02826,3.12061-19.57957,9.32602
		c-4.54472,6.20541-6.8815,15.33743-6.98924,27.3309v9.96609c0,12.16617,2.16429,21.46365,6.5146,27.83432
		c4.35733,6.40662,10.72821,9.57745,19.12666,9.57745c7.67212,0,13.42441-1.71115,17.30006-5.16241
		c3.88292-3.45874,6.32063-9.18954,7.3342-17.22131H215.43416"/>
	<path class="st1" d="M326.07397,370.03461v34.97452h21.70789c6.1264,0,10.90091-1.48843,14.35239-4.5228
		c3.45853-3.03433,5.16968-7.24771,5.16968-12.61206c0-11.62677-5.95349-17.58774-17.91843-17.83966H326.07397z M326.07397,355.6539
		h19.1554c6.06873,0,10.81445-1.37344,14.237-4.12735c3.42999-2.75391,5.14114-6.65833,5.14114-11.71326
		c0-5.55829-1.57468-9.5777-4.74573-12.05118c-3.17084-2.46622-8.08926-3.70319-14.80508-3.70319h-18.98273V355.6539z
		 M306.52295,420.76349V308.29755h38.53375c12.72723,0,22.41992,2.55969,29.04248,7.67212
		c6.65836,5.08365,9.97293,12.69125,9.97293,22.77936c0,5.14139-1.37323,9.77191-4.15613,13.89929
		c-2.78244,4.13458-6.85251,7.30542-12.2164,9.5777c6.0687,1.66089,10.78568,4.75296,14.10049,9.29724
		c3.31479,4.55154,4.96844,10.03064,4.96844,16.43024c0,10.534-3.37228,18.65204-10.13858,24.32532
		c-6.76608,5.67328-16.45877,8.48468-29.09955,8.48468H306.52295"/>
	<path class="st1" d="M174.8443,249.25665c0,20.6221-16.71068,37.33279-37.35472,37.33279
		c-20.61487,0-37.35451-16.71069-37.35451-37.33279c0-20.64383,16.73964-37.35451,37.35451-37.35451
		C158.13362,211.90215,174.8443,228.61282,174.8443,249.25665"/>
	<path class="st1" d="M383.73416,214.06644c19.43585,6.96753,29.55292,28.30894,22.61392,47.75201
		c-6.93854,19.43564-28.28699,29.54568-47.72305,22.60669c-19.43561-6.93875-29.54544-28.30893-22.60666-47.75201
		C342.94989,217.26625,364.32709,207.12767,383.73416,214.06644"/>
	<path class="st2" d="M255.37735,420.76044V64.81102 M138.87027,239.59666l29.12151-43.70343l87.38557-131.08221l87.37833,131.08221
		l29.12854,43.70343"/>
	<polyline class="st3" points="167.99178,195.89323 255.29089,287.51413 342.75568,195.89323 	"/>
</g>
</svg>
