<?xml version="1.0" encoding="iso-8859-1"?>
<!-- Generator: Adobe Illustrator 16.0.0, SVG Export Plug-In . SVG Version: 6.00 Build 0)  -->
<!DOCTYPE svg PUBLIC "-//W3C//DTD SVG 1.1//EN" "http://www.w3.org/Graphics/SVG/1.1/DTD/svg11.dtd">
<svg xmlns="http://www.w3.org/2000/svg" xmlns:xlink="http://www.w3.org/1999/xlink" version="1.1" id="Capa_1" x="0px" y="0px" width="512px" height="512px" viewBox="0 0 893.4 893.4" style="enable-background:new 0 0 893.4 893.4;" xml:space="preserve">
<g>
	<polygon points="539.001,137.4 508.901,220.2 569.8,220.2  " fill="#FFFFFF"/>
	<g>
		<path d="M747.3,893.4c13.801,0,25-11.2,25-25V25c0-13.8-11.199-25-25-25H146.101c-13.8,0-25,11.2-25,25v700.5H234    c30.3,0,55,24.7,55,55v112.9H747.3z M426.8,297.2l80-205.5c3.701-9.6,13-15.9,23.301-15.9h19c10.199,0,19.4,6.2,23.199,15.7    l82.4,205.6c3.9,9.9-3.299,20.6-13.9,20.6h-16.398c-10.301,0-19.602-6.4-23.301-16l-14.699-38.2h-93.4L479.3,301.3    c-3.6,9.9-13,16.5-23.5,16.5h-15C430.201,317.7,423,307.1,426.8,297.2z M256.5,381.4h380.401c13.799,0,25,11.199,25,25    c0,13.8-11.201,25-25,25H256.5c-13.8,0-25-11.2-25-25C231.5,392.6,242.701,381.4,256.5,381.4z M256.5,493.5h380.401    c13.799,0,25,11.2,25,25s-11.201,25-25,25H256.5c-13.8,0-25-11.2-25-25S242.701,493.5,256.5,493.5z M256.5,655.6    c-13.8,0-25-11.199-25-25c0-13.8,11.2-25,25-25h380.401c13.799,0,25,11.2,25,25c0,13.801-11.201,25-25,25H256.5z" fill="#FFFFFF"/>
		<path d="M121.101,755.5L259,893.4v-0.7V780.5c0-13.8-11.2-25-25-25H121.101z" fill="#FFFFFF"/>
	</g>
</g>
<g>
</g>
<g>
</g>
<g>
</g>
<g>
</g>
<g>
</g>
<g>
</g>
<g>
</g>
<g>
</g>
<g>
</g>
<g>
</g>
<g>
</g>
<g>
</g>
<g>
</g>
<g>
</g>
<g>
</g>
</svg>
