<?xml version="1.0" encoding="UTF-8" standalone="no"?>
<!-- Generator: Adobe Illustrator 16.0.0, SVG Export Plug-In . SVG Version: 6.00 Build 0)  -->

<svg
   xmlns:dc="http://purl.org/dc/elements/1.1/"
   xmlns:cc="http://creativecommons.org/ns#"
   xmlns:rdf="http://www.w3.org/1999/02/22-rdf-syntax-ns#"
   xmlns:svg="http://www.w3.org/2000/svg"
   xmlns="http://www.w3.org/2000/svg"
   xmlns:sodipodi="http://sodipodi.sourceforge.net/DTD/sodipodi-0.dtd"
   xmlns:inkscape="http://www.inkscape.org/namespaces/inkscape"
   version="1.1"
   id="Layer_1"
   x="0px"
   y="0px"
   width="90.550003"
   height="90.491997"
   viewBox="0 0 90.55 90.491997"
   enable-background="new 0 0 267.333 262"
   xml:space="preserve"
   sodipodi:docname="TP-Logo-02.svg"
   inkscape:version="0.92.1 r"><metadata
     id="metadata37"><rdf:RDF><cc:Work
         rdf:about=""><dc:format>image/svg+xml</dc:format><dc:type
           rdf:resource="http://purl.org/dc/dcmitype/StillImage" /><dc:title></dc:title></cc:Work></rdf:RDF></metadata><defs
     id="defs35" /><sodipodi:namedview
     pagecolor="#ffffff"
     bordercolor="#666666"
     borderopacity="1"
     objecttolerance="10"
     gridtolerance="10"
     guidetolerance="10"
     inkscape:pageopacity="0"
     inkscape:pageshadow="2"
     inkscape:window-width="640"
     inkscape:window-height="480"
     id="namedview33"
     showgrid="false"
     fit-margin-top="0"
     fit-margin-left="0"
     fit-margin-right="0"
     fit-margin-bottom="0"
     inkscape:zoom="0.90076336"
     inkscape:cx="39.346843"
     inkscape:cy="38.784153"
     inkscape:window-x="0"
     inkscape:window-y="30"
     inkscape:window-maximized="0"
     inkscape:current-layer="g30" /><g
     id="g26"
     transform="translate(-96.54,-84.843)" /><g
     id="g30"
     transform="translate(-96.54,-84.843)"><path
       d="m 118.579,84.858 h 38.522 c 0.601,0 1.765,0.064 3.49,0.194 1.723,0.129 3.704,0.432 5.946,0.905 2.24,0.475 4.567,1.228 6.98,2.263 2.412,1.034 4.631,2.456 6.657,4.266 2.023,1.81 3.685,4.072 4.977,6.787 1.292,2.714 1.939,6.011 1.939,9.889 0,4.223 -0.775,7.95 -2.327,11.182 -1.552,3.232 -3.663,5.946 -6.334,8.145 -2.673,2.197 -5.84,3.877 -9.501,5.041 -3.664,1.164 -7.562,1.746 -11.699,1.746 -3.535,0 -7.413,-0.43 -11.635,-1.293 v -2.714 c 0.948,0.087 1.854,0.13 2.715,0.13 0.861,0 1.636,0 2.327,0 7.67,0 13.573,-1.681 17.71,-5.042 4.137,-3.361 6.205,-9.091 6.205,-17.193 0,-6.722 -1.681,-11.764 -5.042,-15.125 -1.983,-1.723 -4.581,-2.883 -8.135,-3.121 -2.74,-0.184 -5.214,-0.169 -8.053,-0.212 h -12.928 l -0.289,-0.043 v 78.855 l 10.342,1.938 v 3.879 h -32.06 v -3.879 l 10.342,-1.938 V 90.66 h -11.635 l -12.927,0.647 -2.843,11.634 H 96.54 l 0.646,-17.581 0.258,-0.517 h 59.927"
       id="path28"
       style="fill:#ffffff"
       inkscape:connector-curvature="0" /></g></svg>