<svg xmlns="http://www.w3.org/2000/svg" xmlns:xlink="http://www.w3.org/1999/xlink" width="44.998" height="32.634" viewBox="0 0 44.997711 32.6339"><defs><clipPath id="b"><use xlink:href="#a" width="100%" height="100%"/></clipPath></defs><g clip-path="url(#b)" transform="translate(-23.52 -4.786)"><path d="M59.988 4.787c.267-.005.538.004.81.026 1.105.06 2.14.36 3.192.867 1 .538 1.884 1.207 2.56 2.05.713.826 1.214 1.756 1.554 2.782.326.995.458 2.037.4 3.144-.086 1.087-.372 2.135-.893 3.174-.515 1.01-1.206 1.874-2.024 2.574-.858.7-1.79 1.226-2.785 1.547-1.03.337-2.06.452-3.165.396-1.072-.078-2.132-.395-3.156-.883-1.026-.55-1.884-1.206-2.6-2.05-.7-.855-1.2-1.77-1.548-2.776-.334-1.03-.475-2.076-.39-3.162.074-1.067.367-2.14.882-3.15.53-1.038 1.208-1.89 2.04-2.598.833-.715 1.75-1.226 2.777-1.534.77-.252 1.547-.39 2.348-.406zm-19.023 9.68c.2-.007.4-.004.6.008.832.062 1.626.297 2.408.67.78.424 1.438.93 1.976 1.56.514.622.906 1.322 1.148 2.106.252.766.356 1.54.316 2.38-.048.806-.29 1.6-.666 2.402-.414.762-.914 1.427-1.547 1.96-.655.53-1.34.897-2.118 1.167-.766.244-1.56.344-2.37.294-.826-.062-1.635-.27-2.425-.674-.77-.398-1.42-.92-1.957-1.553-.516-.625-.907-1.326-1.156-2.084-.26-.8-.367-1.576-.305-2.394.057-.84.295-1.63.665-2.412.42-.78.924-1.436 1.547-1.962.635-.535 1.33-.93 2.105-1.147.585-.202 1.178-.304 1.778-.323zM28.45 26.953c.915-.065 1.79.13 2.685.56.846.458 1.537 1.058 2.033 1.833.49.78.76 1.6.822 2.52.04.91-.147 1.816-.58 2.675-.452.88-1.06 1.542-1.814 2.04-.775.494-1.61.77-2.528.828-.914.063-1.804-.14-2.675-.56-.874-.47-1.547-1.05-2.038-1.834-.496-.77-.765-1.603-.824-2.526-.06-.917.114-1.802.56-2.675.434-.852 1.057-1.547 1.836-2.038.775-.49 1.606-.766 2.525-.822z" fill="#fff" id="a"/></g><path fill="none" d="M-49.29-25.556H9.943V24.83h-59.23z"/></svg>