<?xml version="1.0" encoding="UTF-8" standalone="no"?>
<svg
   xmlns:dc="http://purl.org/dc/elements/1.1/"
   xmlns:cc="http://creativecommons.org/ns#"
   xmlns:rdf="http://www.w3.org/1999/02/22-rdf-syntax-ns#"
   xmlns:svg="http://www.w3.org/2000/svg"
   xmlns="http://www.w3.org/2000/svg"
   xmlns:sodipodi="http://sodipodi.sourceforge.net/DTD/sodipodi-0.dtd"
   xmlns:inkscape="http://www.inkscape.org/namespaces/inkscape"
   viewBox="0 0 218.33479 53.413124"
   height="53.413124"
   width="218.33479"
   xml:space="preserve"
   id="svg2"
   version="1.1"
   sodipodi:docname="navet.svg"
   inkscape:version="0.92.1 r"><sodipodi:namedview
     pagecolor="#ffffff"
     bordercolor="#666666"
     borderopacity="1"
     objecttolerance="10"
     gridtolerance="10"
     guidetolerance="10"
     inkscape:pageopacity="0"
     inkscape:pageshadow="2"
     inkscape:window-width="1543"
     inkscape:window-height="635"
     id="namedview17"
     showgrid="false"
     fit-margin-top="0"
     fit-margin-left="0"
     fit-margin-right="0"
     fit-margin-bottom="0"
     inkscape:zoom="4.2102542"
     inkscape:cx="149.0231"
     inkscape:cy="37.556573"
     inkscape:window-x="0"
     inkscape:window-y="30"
     inkscape:window-maximized="0"
     inkscape:current-layer="g24" /><metadata
     id="metadata8"><rdf:RDF><cc:Work
         rdf:about=""><dc:format>image/svg+xml</dc:format><dc:type
           rdf:resource="http://purl.org/dc/dcmitype/StillImage" /><dc:title></dc:title></cc:Work></rdf:RDF></metadata><defs
     id="defs6" /><g
     transform="matrix(1.3333333,0,0,-1.3333333,1.2715503e-4,97.758944)"
     id="g10"><g
       transform="scale(0.1)"
       id="g12"><path
         id="path14"
         style="fill:#ffffff;fill-opacity:1;fill-rule:nonzero;stroke:none"
         d="m 0.015625,722.965 c 0,0 0.414063,-272.922 0,-281.672 -0.417969,-8.75 7.078125,-50.828 21.249975,-69.164 14.168,-18.336 31.668,-27.504 42.0821,-29.586 -1.25,23.75 -2.0821,296.25 1.25,318.336 23.3359,0.836 57.0863,7.086 66.2543,8.336 9.164,1.25 57.492,12.492 79.164,-11.672 6.25,-7.078 20,-18.328 22.5,-59.578 1.668,-41.25 2.086,-244.168 2.086,-253.75 13.75,0 63.332,0.414 63.332,0.414 0,0 0.832,231.668 -0.418,255.836 -1.25,24.164 -2.5,54.16 -20.414,80.828 -17.918,26.672 -51.668,52.914 -100.418,51.25 -48.75,-1.664 -87.9184,-10 -102.9184,-10 -15,0 -73.749975,0.422 -73.749975,0.422"
         inkscape:connector-curvature="0" /><path
         id="path16"
         style="fill:#ffffff;fill-opacity:1;fill-rule:nonzero;stroke:none"
         d="m 597.934,541.293 c 0,0 -78.329,-7.078 -96.25,-11.664 -17.918,-4.586 -78.754,-20.836 -75.418,-72.5 3.336,-51.664 32.5,-64.582 73.75,-64.164 41.25,0.414 68.75,17.914 98.75,42.914 0,24.164 0.004,92.914 -0.832,105.414 z m 9.168,172.504 c 45.828,-25 49.168,-57.082 54.168,-92.5 5,-35.414 1.664,-270.418 1.664,-287.082 -44.164,18.332 -52.914,49.582 -55,59.582 -5.414,-8.328 -42.082,-36.25 -70,-50.418 -27.914,-14.168 -83.332,-15.414 -117.082,2.5 -33.75,17.914 -62.082,60.836 -60.832,112.5 1.25,51.664 24.582,85.836 76.25,109.586 51.668,23.75 162.082,23.75 162.082,23.75 0,0 7.082,58.332 -29.168,73.332 -23.75,10.418 -49.164,10.418 -62.5,10.418 -30,0 -57.914,-8.75 -62.914,-8.75 -22.918,1.25 -51.25,49.164 -51.25,49.164 80,19.164 152.496,27.5 214.582,-2.082"
         inkscape:connector-curvature="0" /><path
         id="path18"
         style="fill:#ffffff;fill-opacity:1;fill-rule:nonzero;stroke:none"
         d="m 702.516,722.129 c 0,0 108.754,-290 112.918,-301.25 4.168,-11.25 22.925,-74.586 83.336,-85 5.41,13.336 146.24,386.25 146.24,386.25 -18.75,0 -66.655,0 -66.655,0 0,0 -102.085,-288.746 -102.503,-290.832 -10.422,32.082 -75.418,212.5 -80.418,226.25 -5,13.75 -23.754,71.246 -92.918,64.582"
         inkscape:connector-curvature="0" /><path
         id="path20"
         style="fill:#ffffff;fill-opacity:1;fill-rule:nonzero;stroke:none"
         d="m 1126.67,575.047 h 199.18 c 0,0 0.41,54.168 -22.93,77.918 -23.32,23.75 -48.73,27.082 -70.41,27.082 -21.66,0 -52.5,-3.75 -76.25,-31.25 -23.75,-27.5 -29.59,-54.578 -29.59,-73.75 z m 124.18,-183.75 c 46.25,0 73.32,14.168 89.57,22.082 31.25,-18.75 37.09,-38.332 40.02,-47.082 -112.09,-59.168 -317.09,-54.168 -320,163.75 0,5.836 -3.34,88.332 44.16,143.332 47.5,55 99.59,59.168 130,59.168 30.41,0 77.09,-2.5 119.16,-49.582 42.09,-47.086 34.59,-158.336 34.59,-158.336 h -261.66 c -3.34,-112.082 77.91,-133.332 124.16,-133.332"
         inkscape:connector-curvature="0" /><path
         id="path22"
         style="fill:#ffffff;fill-opacity:1;fill-rule:nonzero;stroke:none"
         d="m 1401.26,721.715 h 183.34 c 0,0 37.07,-8.336 52.91,-53.336 -22.09,0 -118.34,0 -118.34,0 V 458.797 c 0,0 -0.82,-57.5 35.43,-65 36.25,-7.5 64.59,2.496 75,9.582 3.75,2.918 7.07,1.668 7.07,1.668 0,0 0,-13.793 0,-27.918 0,-14.981 0,-30.328 0,-30 -3.75,-1.664 -20.41,-12.914 -67.91,-12.914 -47.5,0 -113.34,14.164 -113.34,121.25 0,107.082 0,212.914 0,212.914 0,0 -37.09,8.336 -54.16,53.336"
         inkscape:connector-curvature="0" /><g
         transform="scale(10)"
         id="g24" /></g></g></svg>