<?xml version="1.0" encoding="utf-8"?>
<svg xmlns="http://www.w3.org/2000/svg">
  <symbol id="devilry" viewBox="0 0 2048 1792">
    <path
      d="M1943 952q0 31-31 66l-336 396q-43 51-120.5 86.5t-143.5 35.5h-1088q-34 0-60.5-13t-26.5-43q0-31 31-66l336-396q43-51 120.5-86.5t143.5-35.5h1088q34 0 60.5 13t26.5 43zm-343-344v160h-832q-94 0-197 47.5t-164 119.5l-337 396-5 6q0-4-.5-12.5t-.5-12.5v-960q0-92 66-158t158-66h320q92 0 158 66t66 158v32h544q92 0 158 66t66 158z"
      fill="#fff"/>
  </symbol>
  <symbol id="fagsider" viewBox="0 0 1792 1792">
    <path
      d="M1703 478q40 57 18 129l-275 906q-19 64-76.5 107.5t-122.5 43.5h-923q-77 0-148.5-53.5t-99.5-131.5q-24-67-2-127 0-4 3-27t4-37q1-8-3-21.5t-3-19.5q2-11 8-21t16.5-23.5 16.5-23.5q23-38 45-91.5t30-91.5q3-10 .5-30t-.5-28q3-11 17-28t17-23q21-36 42-92t25-90q1-9-2.5-32t.5-28q4-13 22-30.5t22-22.5q19-26 42.5-84.5t27.5-96.5q1-8-3-25.5t-2-26.5q2-8 9-18t18-23 17-21q8-12 16.5-30.5t15-35 16-36 19.5-32 26.5-23.5 36-11.5 47.5 5.5l-1 3q38-9 51-9h761q74 0 114 56t18 130l-274 906q-36 119-71.5 153.5t-128.5 34.5h-869q-27 0-38 15-11 16-1 43 24 70 144 70h923q29 0 56-15.5t35-41.5l300-987q7-22 5-57 38 15 59 43zm-1064 2q-4 13 2 22.5t20 9.5h608q13 0 25.5-9.5t16.5-22.5l21-64q4-13-2-22.5t-20-9.5h-608q-13 0-25.5 9.5t-16.5 22.5zm-83 256q-4 13 2 22.5t20 9.5h608q13 0 25.5-9.5t16.5-22.5l21-64q4-13-2-22.5t-20-9.5h-608q-13 0-25.5 9.5t-16.5 22.5z"
      fill="#fff"/>
  </symbol>
  <symbol id="inspera" viewBox="0 0 44.997711 32.6339">
    <defs>
      <clipPath id="b">
        <use width="100%" height="100%"/>
      </clipPath>
    </defs>
    <g clip-path="url(#b)" transform="translate(-23.52 -4.786)">
      <path
        d="M59.988 4.787c.267-.005.538.004.81.026 1.105.06 2.14.36 3.192.867 1 .538 1.884 1.207 2.56 2.05.713.826 1.214 1.756 1.554 2.782.326.995.458 2.037.4 3.144-.086 1.087-.372 2.135-.893 3.174-.515 1.01-1.206 1.874-2.024 2.574-.858.7-1.79 1.226-2.785 1.547-1.03.337-2.06.452-3.165.396-1.072-.078-2.132-.395-3.156-.883-1.026-.55-1.884-1.206-2.6-2.05-.7-.855-1.2-1.77-1.548-2.776-.334-1.03-.475-2.076-.39-3.162.074-1.067.367-2.14.882-3.15.53-1.038 1.208-1.89 2.04-2.598.833-.715 1.75-1.226 2.777-1.534.77-.252 1.547-.39 2.348-.406zm-19.023 9.68c.2-.007.4-.004.6.008.832.062 1.626.297 2.408.67.78.424 1.438.93 1.976 1.56.514.622.906 1.322 1.148 2.106.252.766.356 1.54.316 2.38-.048.806-.29 1.6-.666 2.402-.414.762-.914 1.427-1.547 1.96-.655.53-1.34.897-2.118 1.167-.766.244-1.56.344-2.37.294-.826-.062-1.635-.27-2.425-.674-.77-.398-1.42-.92-1.957-1.553-.516-.625-.907-1.326-1.156-2.084-.26-.8-.367-1.576-.305-2.394.057-.84.295-1.63.665-2.412.42-.78.924-1.436 1.547-1.962.635-.535 1.33-.93 2.105-1.147.585-.202 1.178-.304 1.778-.323zM28.45 26.953c.915-.065 1.79.13 2.685.56.846.458 1.537 1.058 2.033 1.833.49.78.76 1.6.822 2.52.04.91-.147 1.816-.58 2.675-.452.88-1.06 1.542-1.814 2.04-.775.494-1.61.77-2.528.828-.914.063-1.804-.14-2.675-.56-.874-.47-1.547-1.05-2.038-1.834-.496-.77-.765-1.603-.824-2.526-.06-.917.114-1.802.56-2.675.434-.852 1.057-1.547 1.836-2.038.775-.49 1.606-.766 2.525-.822z"
        fill="#fff" id="a"/>
    </g>
    <path fill="none" d="M-49.29-25.556H9.943V24.83h-59.23z"/>
  </symbol>
  <symbol id="kantine" viewBox="0 0 540.201 540.201">
    <g>
      <g>
        <path
          d="M169.467,194.102v310.136c0,8.086,2.95,15.08,8.862,20.986c5.808,5.809,12.681,8.732,20.6,8.824    c7.914-0.092,14.792-3.016,20.606-8.824c5.906-5.906,8.855-12.9,8.855-20.986V194.102c8.862-3.103,42.081-32.711,42.081-42.204    V27.161c0-4.033-1.481-7.534-4.431-10.49c-2.956-2.95-6.457-4.431-10.49-4.431c-4.045,0-7.54,1.481-10.49,4.431    c-2.956,2.962-4.431,6.457-4.431,10.49v96.99c0,4.045-1.481,7.54-4.431,10.49c-2.956,2.956-6.451,4.425-10.49,4.425    c-4.045,0-7.54-1.469-10.49-4.425c-2.95-2.95-4.431-6.451-4.431-10.49v-96.99c0-4.033-1.481-7.534-4.431-10.49    c-2.95-2.95-6.45-4.431-10.489-4.431c-4.045,0-7.54,1.481-10.49,4.431c-2.956,2.962-4.431,6.457-4.431,10.49v96.99    c0,4.045-1.481,7.54-4.431,10.49c-2.956,2.956-6.451,4.425-10.49,4.425c-4.045,0-7.54-1.469-10.49-4.425    c-2.956-2.95-4.431-6.451-4.431-10.49v-96.99c0-4.033-1.475-7.534-4.431-10.49c-2.95-2.95-6.45-4.431-10.49-4.431    c-4.045,0-7.54,1.481-10.489,4.431c-2.95,2.962-4.431,6.457-4.431,10.49v124.732C121.266,161.384,160.605,190.993,169.467,194.102    z"
          fill="#FFFFFF"/>
        <path
          d="M199.308,534.08c-0.129,0-0.251-0.037-0.38-0.037c-0.128,0-0.245,0.037-0.379,0.037H199.308z"
          fill="#FFFFFF"/>
        <path d="M389.848,540.201c-0.129,0-0.25-0.037-0.379-0.037s-0.252,0.037-0.379,0.037H389.848z"
          fill="#FFFFFF"/>
        <path
          d="M326.139,268.588h33.869v241.771c0,8.084,2.949,15.08,8.855,20.984c5.812,5.809,12.686,8.734,20.605,8.826    c7.912-0.092,14.791-3.018,20.605-8.826c5.906-5.904,8.861-12.9,8.861-20.984V14.921c0-4.033-1.48-7.534-4.43-10.49    C411.549,1.481,408.055,0,404.016,0h-10.723c-20.52,0-38.084,7.308-52.693,21.916c-14.607,14.614-21.914,32.179-21.914,52.693    v186.52c0,2.02,0.74,3.77,2.215,5.245C322.369,267.848,324.119,268.588,326.139,268.588z"
          fill="#FFFFFF"/>
      </g>
    </g>
  </symbol>
  <symbol id="kursevaluering" viewBox="0 0 1792 1792">
    <path
      d="M1792 896q0 174-120 321.5t-326 233-450 85.5q-70 0-145-8-198 175-460 242-49 14-114 22-17 2-30.5-9t-17.5-29v-1q-3-4-.5-12t2-10 4.5-9.5l6-9 7-8.5 8-9q7-8 31-34.5t34.5-38 31-39.5 32.5-51 27-59 26-76q-157-89-247.5-220t-90.5-281q0-130 71-248.5t191-204.5 286-136.5 348-50.5q244 0 450 85.5t326 233 120 321.5z"
      fill="#fff"/>
  </symbol>
  <symbol id="mail" viewBox="0 0 103.17322 104.31332">

    <defs id="defs43"/>
    <path
      d="m 64.566509,22.116383 v 20.404273 l 7.130526,4.489881 c 0.188058,0.05485 0.595516,0.05877 0.783574,0 L 103.16929,26.320259 c 0,-2.44867 -2.28412,-4.203876 -3.573094,-4.203876 H 64.566509 z"
      id="path3" connector-curvature="0" style="fill:#ffffff"/>
    <path
      d="m 64.566509,50.13308 6.507584,4.470291 c 0.916782,0.673874 2.021622,0 2.021622,0 -1.100922,0.673874 30.077495,-20.035993 30.077495,-20.035993 v 37.501863 c 0,4.082422 -2.61322,5.794531 -5.551621,5.794531 H 64.562591 V 50.13308 z"
      id="path5" connector-curvature="0" style="fill:#ffffff"/>


    <g id="g23" transform="matrix(3.9178712,0,0,3.9178712,-13.481403,-41.384473)">
      <path
        d="m 11.321,20.958 c -0.566,0 -1.017,0.266 -1.35,0.797 -0.333,0.531 -0.5,1.234 -0.5,2.109 0,0.888 0.167,1.59 0.5,2.106 0.333,0.517 0.77,0.774 1.31,0.774 0.557,0 0.999,-0.251 1.325,-0.753 0.326,-0.502 0.49,-1.199 0.49,-2.09 0,-0.929 -0.158,-1.652 -0.475,-2.169 -0.317,-0.516 -0.75,-0.774 -1.3,-0.774 z"
        id="path25" connector-curvature="0" style="fill:#ffffff"/>
      <path
        d="m 3.441,13.563 v 20.375 l 15.5,3.25 V 10.563 l -15.5,3 z m 10.372,13.632 c -0.655,0.862 -1.509,1.294 -2.563,1.294 -1.027,0 -1.863,-0.418 -2.51,-1.253 C 8.094,26.4 7.77,25.312 7.77,23.97 c 0,-1.417 0.328,-2.563 0.985,-3.438 0.657,-0.875 1.527,-1.313 2.61,-1.313 1.023,0 1.851,0.418 2.482,1.256 0.632,0.838 0.948,1.942 0.948,3.313 10e-4,1.409 -0.327,2.545 -0.982,3.407 z"
        id="path27" connector-curvature="0" style="fill:#ffffff"/>
    </g>


  </symbol>
  <symbol id="navet" viewBox="0 0 218.33479 53.413124">
    <defs id="defs6"/>
    <g transform="matrix(1.3333333,0,0,-1.3333333,1.2715503e-4,97.758944)" id="g10">
      <g transform="scale(0.1)" id="g12">
        <path id="path14" style="fill:#ffffff;fill-opacity:1;fill-rule:nonzero;stroke:none"
          d="m 0.015625,722.965 c 0,0 0.414063,-272.922 0,-281.672 -0.417969,-8.75 7.078125,-50.828 21.249975,-69.164 14.168,-18.336 31.668,-27.504 42.0821,-29.586 -1.25,23.75 -2.0821,296.25 1.25,318.336 23.3359,0.836 57.0863,7.086 66.2543,8.336 9.164,1.25 57.492,12.492 79.164,-11.672 6.25,-7.078 20,-18.328 22.5,-59.578 1.668,-41.25 2.086,-244.168 2.086,-253.75 13.75,0 63.332,0.414 63.332,0.414 0,0 0.832,231.668 -0.418,255.836 -1.25,24.164 -2.5,54.16 -20.414,80.828 -17.918,26.672 -51.668,52.914 -100.418,51.25 -48.75,-1.664 -87.9184,-10 -102.9184,-10 -15,0 -73.749975,0.422 -73.749975,0.422"
          connector-curvature="0"/>
        <path id="path16" style="fill:#ffffff;fill-opacity:1;fill-rule:nonzero;stroke:none"
          d="m 597.934,541.293 c 0,0 -78.329,-7.078 -96.25,-11.664 -17.918,-4.586 -78.754,-20.836 -75.418,-72.5 3.336,-51.664 32.5,-64.582 73.75,-64.164 41.25,0.414 68.75,17.914 98.75,42.914 0,24.164 0.004,92.914 -0.832,105.414 z m 9.168,172.504 c 45.828,-25 49.168,-57.082 54.168,-92.5 5,-35.414 1.664,-270.418 1.664,-287.082 -44.164,18.332 -52.914,49.582 -55,59.582 -5.414,-8.328 -42.082,-36.25 -70,-50.418 -27.914,-14.168 -83.332,-15.414 -117.082,2.5 -33.75,17.914 -62.082,60.836 -60.832,112.5 1.25,51.664 24.582,85.836 76.25,109.586 51.668,23.75 162.082,23.75 162.082,23.75 0,0 7.082,58.332 -29.168,73.332 -23.75,10.418 -49.164,10.418 -62.5,10.418 -30,0 -57.914,-8.75 -62.914,-8.75 -22.918,1.25 -51.25,49.164 -51.25,49.164 80,19.164 152.496,27.5 214.582,-2.082"
          connector-curvature="0"/>
        <path id="path18" style="fill:#ffffff;fill-opacity:1;fill-rule:nonzero;stroke:none"
          d="m 702.516,722.129 c 0,0 108.754,-290 112.918,-301.25 4.168,-11.25 22.925,-74.586 83.336,-85 5.41,13.336 146.24,386.25 146.24,386.25 -18.75,0 -66.655,0 -66.655,0 0,0 -102.085,-288.746 -102.503,-290.832 -10.422,32.082 -75.418,212.5 -80.418,226.25 -5,13.75 -23.754,71.246 -92.918,64.582"
          connector-curvature="0"/>
        <path id="path20" style="fill:#ffffff;fill-opacity:1;fill-rule:nonzero;stroke:none"
          d="m 1126.67,575.047 h 199.18 c 0,0 0.41,54.168 -22.93,77.918 -23.32,23.75 -48.73,27.082 -70.41,27.082 -21.66,0 -52.5,-3.75 -76.25,-31.25 -23.75,-27.5 -29.59,-54.578 -29.59,-73.75 z m 124.18,-183.75 c 46.25,0 73.32,14.168 89.57,22.082 31.25,-18.75 37.09,-38.332 40.02,-47.082 -112.09,-59.168 -317.09,-54.168 -320,163.75 0,5.836 -3.34,88.332 44.16,143.332 47.5,55 99.59,59.168 130,59.168 30.41,0 77.09,-2.5 119.16,-49.582 42.09,-47.086 34.59,-158.336 34.59,-158.336 h -261.66 c -3.34,-112.082 77.91,-133.332 124.16,-133.332"
          connector-curvature="0"/>
        <path id="path22" style="fill:#ffffff;fill-opacity:1;fill-rule:nonzero;stroke:none"
          d="m 1401.26,721.715 h 183.34 c 0,0 37.07,-8.336 52.91,-53.336 -22.09,0 -118.34,0 -118.34,0 V 458.797 c 0,0 -0.82,-57.5 35.43,-65 36.25,-7.5 64.59,2.496 75,9.582 3.75,2.918 7.07,1.668 7.07,1.668 0,0 0,-13.793 0,-27.918 0,-14.981 0,-30.328 0,-30 -3.75,-1.664 -20.41,-12.914 -67.91,-12.914 -47.5,0 -113.34,14.164 -113.34,121.25 0,107.082 0,212.914 0,212.914 0,0 -37.09,8.336 -54.16,53.336"
          connector-curvature="0"/>
        <g transform="scale(10)" id="g24"/>
      </g>
    </g>
  </symbol>
  <symbol id="romkart" viewBox="0 0 1792 1792">
    <path
      d="M512 0q13 0 22.5 9.5t9.5 22.5v1472q0 20-17 28l-480 256q-7 4-15 4-13 0-22.5-9.5t-9.5-22.5v-1472q0-20 17-28l480-256q7-4 15-4zm1248 0q13 0 22.5 9.5t9.5 22.5v1472q0 20-17 28l-480 256q-7 4-15 4-13 0-22.5-9.5t-9.5-22.5v-1472q0-20 17-28l480-256q7-4 15-4zm-1120 0q8 0 14 3l512 256q18 10 18 29v1472q0 13-9.5 22.5t-22.5 9.5q-8 0-14-3l-512-256q-18-10-18-29v-1472q0-13 9.5-22.5t22.5-9.5z"
      fill="#fff"/>
  </symbol>
  <symbol id="studentweb" viewBox="0 0 893.4 893.4">
    <g>
      <polygon points="539.001,137.4 508.901,220.2 569.8,220.2  " fill="#FFFFFF"/>
      <g>
        <path
          d="M747.3,893.4c13.801,0,25-11.2,25-25V25c0-13.8-11.199-25-25-25H146.101c-13.8,0-25,11.2-25,25v700.5H234    c30.3,0,55,24.7,55,55v112.9H747.3z M426.8,297.2l80-205.5c3.701-9.6,13-15.9,23.301-15.9h19c10.199,0,19.4,6.2,23.199,15.7    l82.4,205.6c3.9,9.9-3.299,20.6-13.9,20.6h-16.398c-10.301,0-19.602-6.4-23.301-16l-14.699-38.2h-93.4L479.3,301.3    c-3.6,9.9-13,16.5-23.5,16.5h-15C430.201,317.7,423,307.1,426.8,297.2z M256.5,381.4h380.401c13.799,0,25,11.199,25,25    c0,13.8-11.201,25-25,25H256.5c-13.8,0-25-11.2-25-25C231.5,392.6,242.701,381.4,256.5,381.4z M256.5,493.5h380.401    c13.799,0,25,11.2,25,25s-11.201,25-25,25H256.5c-13.8,0-25-11.2-25-25S242.701,493.5,256.5,493.5z M256.5,655.6    c-13.8,0-25-11.199-25-25c0-13.8,11.2-25,25-25h380.401c13.799,0,25,11.2,25,25c0,13.801-11.201,25-25,25H256.5z"
          fill="#FFFFFF"/>
        <path d="M121.101,755.5L259,893.4v-0.7V780.5c0-13.8-11.2-25-25-25H121.101z" fill="#FFFFFF"/>
      </g>
    </g>
  </symbol>
  <symbol id="timeplan" viewBox="0 0 1792 1792">
    <path
      d="M192 1664h1408v-1024h-1408v1024zm384-1216v-288q0-14-9-23t-23-9h-64q-14 0-23 9t-9 23v288q0 14 9 23t23 9h64q14 0 23-9t9-23zm768 0v-288q0-14-9-23t-23-9h-64q-14 0-23 9t-9 23v288q0 14 9 23t23 9h64q14 0 23-9t9-23zm384-64v1280q0 52-38 90t-90 38h-1408q-52 0-90-38t-38-90v-1280q0-52 38-90t90-38h128v-96q0-66 47-113t113-47h64q66 0 113 47t47 113v96h384v-96q0-66 47-113t113-47h64q66 0 113 47t47 113v96h128q52 0 90 38t38 90z"
      fill="#fff"/>
  </symbol>
  <symbol id="tp" viewBox="0 0 90.55 90.491997">
    <g id="g26" transform="translate(-96.54,-84.843)"/>
    <g id="g30" transform="translate(-96.54,-84.843)">
      <path
        d="m 118.579,84.858 h 38.522 c 0.601,0 1.765,0.064 3.49,0.194 1.723,0.129 3.704,0.432 5.946,0.905 2.24,0.475 4.567,1.228 6.98,2.263 2.412,1.034 4.631,2.456 6.657,4.266 2.023,1.81 3.685,4.072 4.977,6.787 1.292,2.714 1.939,6.011 1.939,9.889 0,4.223 -0.775,7.95 -2.327,11.182 -1.552,3.232 -3.663,5.946 -6.334,8.145 -2.673,2.197 -5.84,3.877 -9.501,5.041 -3.664,1.164 -7.562,1.746 -11.699,1.746 -3.535,0 -7.413,-0.43 -11.635,-1.293 v -2.714 c 0.948,0.087 1.854,0.13 2.715,0.13 0.861,0 1.636,0 2.327,0 7.67,0 13.573,-1.681 17.71,-5.042 4.137,-3.361 6.205,-9.091 6.205,-17.193 0,-6.722 -1.681,-11.764 -5.042,-15.125 -1.983,-1.723 -4.581,-2.883 -8.135,-3.121 -2.74,-0.184 -5.214,-0.169 -8.053,-0.212 h -12.928 l -0.289,-0.043 v 78.855 l 10.342,1.938 v 3.879 h -32.06 v -3.879 l 10.342,-1.938 V 90.66 h -11.635 l -12.927,0.647 -2.843,11.634 H 96.54 l 0.646,-17.581 0.258,-0.517 h 59.927"
        id="path28" style="fill:#ffffff" connector-curvature="0"/>
    </g>
  </symbol>
</svg>