<svg xmlns="http://www.w3.org/2000/svg"><symbol viewBox="0 0 2048 1792"><path d="M1943 952q0 31-31 66l-336 396q-43 51-120.5 86.5T1312 1536H224q-34 0-60.5-13t-26.5-43q0-31 31-66l336-396q43-51 120.5-86.5T768 896h1088q34 0 60.5 13t26.5 43zm-343-344v160H768q-94 0-197 47.5T407 935L70 1331l-5 6q0-4-.5-12.5T64 1312V352q0-92 66-158t158-66h320q92 0 158 66t66 158v32h544q92 0 158 66t66 158z" fill="#fff"/></symbol><symbol viewBox="0 0 1792 1792"><path d="M1703 478q40 57 18 129l-275 906q-19 64-76.5 107.5T1247 1664H324q-77 0-148.5-53.5T76 1479q-24-67-2-127 0-4 3-27t4-37q1-8-3-21.5t-3-19.5q2-11 8-21t16.5-23.5T116 1179q23-38 45-91.5t30-91.5q3-10 .5-30t-.5-28q3-11 17-28t17-23q21-36 42-92t25-90q1-9-2.5-32t.5-28q4-13 22-30.5t22-22.5q19-26 42.5-84.5T404 411q1-8-3-25.5t-2-26.5q2-8 9-18t18-23 17-21q8-12 16.5-30.5t15-35 16-36 19.5-32 26.5-23.5 36-11.5T620 134l-1 3q38-9 51-9h761q74 0 114 56t18 130l-274 906q-36 119-71.5 153.5T1089 1408H220q-27 0-38 15-11 16-1 43 24 70 144 70h923q29 0 56-15.5t35-41.5l300-987q7-22 5-57 38 15 59 43zm-1064 2q-4 13 2 22.5t20 9.5h608q13 0 25.5-9.5T1311 480l21-64q4-13-2-22.5t-20-9.5H702q-13 0-25.5 9.5T660 416zm-83 256q-4 13 2 22.5t20 9.5h608q13 0 25.5-9.5T1228 736l21-64q4-13-2-22.5t-20-9.5H619q-13 0-25.5 9.5T577 672z" fill="#fff"/></symbol><symbol viewBox="0 0 44.997711 32.6339"><defs><clipPath id="a"><use width="100%" height="100%"/></clipPath></defs><g clip-path="url(#a)" transform="translate(-23.52 -4.786)"><path d="M59.988 4.787c.267-.005.538.004.81.026 1.105.06 2.14.36 3.192.867 1 .538 1.884 1.207 2.56 2.05a8.078 8.078 0 0 1 1.554 2.782c.326.995.458 2.037.4 3.144a8.472 8.472 0 0 1-.893 3.174 8.395 8.395 0 0 1-2.024 2.574c-.858.7-1.79 1.226-2.785 1.547-1.03.337-2.06.452-3.165.396-1.072-.078-2.132-.395-3.156-.883-1.026-.55-1.884-1.206-2.6-2.05a8.91 8.91 0 0 1-1.548-2.776 8.084 8.084 0 0 1-.39-3.162 8.187 8.187 0 0 1 .882-3.15 8.322 8.322 0 0 1 2.04-2.598 7.539 7.539 0 0 1 2.777-1.534 8.002 8.002 0 0 1 2.348-.406zm-19.023 9.68c.2-.007.4-.004.6.008.832.062 1.626.297 2.408.67.78.424 1.438.93 1.976 1.56a6.121 6.121 0 0 1 1.148 2.106c.252.766.356 1.54.316 2.38-.048.806-.29 1.6-.666 2.402-.414.762-.914 1.427-1.547 1.96-.655.53-1.34.897-2.118 1.167a6.453 6.453 0 0 1-2.37.294 6.288 6.288 0 0 1-2.425-.674 6.386 6.386 0 0 1-1.957-1.553 6.409 6.409 0 0 1-1.156-2.084 6.095 6.095 0 0 1-.305-2.394c.057-.84.295-1.63.665-2.412.42-.78.924-1.436 1.547-1.962.635-.535 1.33-.93 2.105-1.147a5.99 5.99 0 0 1 1.778-.323zM28.45 26.953c.915-.065 1.79.13 2.685.56.846.458 1.537 1.058 2.033 1.833.49.78.76 1.6.822 2.52.04.91-.147 1.816-.58 2.675a5.268 5.268 0 0 1-1.814 2.04c-.775.494-1.61.77-2.528.828-.914.063-1.804-.14-2.675-.56-.874-.47-1.547-1.05-2.038-1.834a5.17 5.17 0 0 1-.824-2.526 5.03 5.03 0 0 1 .56-2.675 5.13 5.13 0 0 1 1.836-2.038 5.226 5.226 0 0 1 2.525-.822z" fill="#fff"/></g><path fill="none" d="M-49.29-25.556H9.943V24.83h-59.23z"/></symbol><symbol viewBox="0 0 540.201 540.201"><g fill="#FFF"><path d="M169.467 194.102v310.136c0 8.086 2.95 15.08 8.862 20.986 5.808 5.809 12.681 8.732 20.6 8.824 7.914-.092 14.792-3.016 20.606-8.824 5.906-5.906 8.855-12.9 8.855-20.986V194.102c8.862-3.103 42.081-32.711 42.081-42.204V27.161c0-4.033-1.481-7.534-4.431-10.49-2.956-2.95-6.457-4.431-10.49-4.431-4.045 0-7.54 1.481-10.49 4.431-2.956 2.962-4.431 6.457-4.431 10.49v96.99c0 4.045-1.481 7.54-4.431 10.49-2.956 2.956-6.451 4.425-10.49 4.425-4.045 0-7.54-1.469-10.49-4.425-2.95-2.95-4.431-6.451-4.431-10.49v-96.99c0-4.033-1.481-7.534-4.431-10.49-2.95-2.95-6.45-4.431-10.489-4.431-4.045 0-7.54 1.481-10.49 4.431-2.956 2.962-4.431 6.457-4.431 10.49v96.99c0 4.045-1.481 7.54-4.431 10.49-2.956 2.956-6.451 4.425-10.49 4.425-4.045 0-7.54-1.469-10.49-4.425-2.956-2.95-4.431-6.451-4.431-10.49v-96.99c0-4.033-1.475-7.534-4.431-10.49-2.95-2.95-6.45-4.431-10.49-4.431-4.045 0-7.54 1.481-10.489 4.431-2.95 2.962-4.431 6.457-4.431 10.49v124.732c.003 9.491 39.342 39.1 48.204 42.209z"/><path d="M199.308 534.08c-.129 0-.251-.037-.38-.037-.128 0-.245.037-.379.037h.759zM389.848 540.201c-.129 0-.25-.037-.379-.037s-.252.037-.379.037h.758z"/><path d="M326.139 268.588h33.869v241.771c0 8.084 2.949 15.08 8.855 20.984 5.812 5.809 12.686 8.734 20.605 8.826 7.912-.092 14.791-3.018 20.605-8.826 5.906-5.904 8.861-12.9 8.861-20.984V14.921c0-4.033-1.48-7.534-4.43-10.49C411.549 1.481 408.055 0 404.016 0h-10.723c-20.52 0-38.084 7.308-52.693 21.916-14.607 14.614-21.914 32.179-21.914 52.693v186.52c0 2.02.74 3.77 2.215 5.245 1.468 1.474 3.218 2.214 5.238 2.214z"/></g></symbol><symbol viewBox="0 0 1792 1792"><path d="M1792 896q0 174-120 321.5t-326 233-450 85.5q-70 0-145-8-198 175-460 242-49 14-114 22-17 2-30.5-9t-17.5-29v-1q-3-4-.5-12t2-10 4.5-9.5l6-9 7-8.5 8-9q7-8 31-34.5t34.5-38 31-39.5 32.5-51 27-59 26-76q-157-89-247.5-220T0 896q0-130 71-248.5T262 443t286-136.5T896 256q244 0 450 85.5t326 233T1792 896z" fill="#fff"/></symbol><symbol viewBox="0 0 103.17322 104.31332"><path d="M64.567 22.116v20.405l7.13 4.49c.188.054.596.058.784 0l30.688-20.69c0-2.45-2.284-4.205-3.573-4.205h-35.03z" fill="#fff"/><path d="M64.567 50.133l6.507 4.47c.917.674 2.022 0 2.022 0-1.101.674 30.077-20.036 30.077-20.036V72.07c0 4.083-2.613 5.795-5.551 5.795h-33.06v-27.73z" fill="#fff"/><g fill="#fff"><path d="M30.873 40.726c-2.218 0-3.985 1.042-5.29 3.123-1.304 2.08-1.958 4.834-1.958 8.263 0 3.479.654 6.229 1.959 8.25 1.304 2.026 3.016 3.033 5.132 3.033 2.182 0 3.914-.983 5.191-2.95 1.278-1.967 1.92-4.698 1.92-8.188 0-3.64-.619-6.473-1.861-8.498-1.242-2.022-2.938-3.033-5.093-3.033z"/><path d="M0 11.754V91.58l60.727 12.733V0L0 11.754zm40.636 53.408c-2.566 3.377-5.912 5.07-10.041 5.07-4.024 0-7.3-1.638-9.834-4.91-2.531-3.275-3.8-7.537-3.8-12.795 0-5.552 1.285-10.042 3.859-13.47 2.574-3.428 5.982-5.144 10.225-5.144 4.008 0 7.252 1.638 9.724 4.92 2.476 3.284 3.715 7.61 3.715 12.98.003 5.521-1.282 9.972-3.848 13.349z"/></g></symbol><symbol viewBox="0 0 218.33479 53.413124"><path d="M.002 1.364s.055 36.39 0 37.556c-.056 1.167.944 6.777 2.834 9.222 1.889 2.445 4.222 3.667 5.61 3.945-.166-3.167-.277-39.5.167-42.445 3.112-.112 7.612-.945 8.834-1.112 1.222-.166 7.666-1.665 10.555 1.557.834.943 2.667 2.443 3 7.943.223 5.5.278 32.556.278 33.834 1.834 0 8.445-.056 8.445-.056s.11-30.889-.056-34.111c-.167-3.222-.333-7.221-2.722-10.777C34.558 3.364 30.058-.135 23.558.087 17.058.308 11.836 1.42 9.836 1.42S.002 1.364.002 1.364M79.725 25.587s-10.444.943-12.834 1.555c-2.389.611-10.5 2.778-10.055 9.666.444 6.889 4.333 8.611 9.833 8.556 5.5-.056 9.167-2.389 13.167-5.722 0-3.222 0-12.389-.111-14.055zm1.222-23.001c6.11 3.333 6.556 7.61 7.222 12.333.667 4.722.222 36.056.222 38.278-5.888-2.444-7.055-6.611-7.333-7.944-.722 1.11-5.61 4.833-9.333 6.722-3.722 1.89-11.111 2.055-15.611-.333-4.5-2.389-8.278-8.112-8.111-15 .166-6.889 3.277-11.445 10.166-14.612 6.89-3.166 21.611-3.166 21.611-3.166s.945-7.778-3.889-9.778c-3.166-1.39-6.555-1.39-8.333-1.39-4 0-7.722 1.168-8.389 1.168-3.055-.167-6.833-6.556-6.833-6.556 10.667-2.555 20.333-3.666 28.611.278M93.669 1.475s14.5 38.667 15.056 40.167c.555 1.5 3.056 9.945 11.111 11.333.721-1.778 19.499-51.5 19.499-51.5h-8.888s-13.61 38.5-13.667 38.778c-1.39-4.278-10.055-28.334-10.722-30.167-.667-1.833-3.167-9.5-12.39-8.61M150.223 21.086h26.557s.055-7.222-3.057-10.39c-3.11-3.166-6.498-3.61-9.388-3.61-2.888 0-7 .5-10.167 4.167-3.167 3.666-3.945 7.277-3.945 9.833zm16.557 24.5c6.167 0 9.776-1.89 11.943-2.944 4.166 2.5 4.945 5.11 5.336 6.277-14.946 7.89-42.279 7.223-42.667-21.833 0-.778-.445-11.778 5.888-19.11C153.613.641 160.56.085 164.613.085c4.055 0 10.28.333 15.888 6.61 5.612 6.28 4.612 21.112 4.612 21.112h-34.888c-.445 14.945 10.388 17.778 16.555 17.778M186.835 1.53h24.445s4.943 1.112 7.055 7.112h-15.779v27.944s-.11 7.667 4.724 8.667c4.833 1 8.612-.333 10-1.278.5-.389.943-.222.943-.222V51.475c-.5.222-2.722 1.722-9.055 1.722s-15.112-1.889-15.112-16.167V8.642s-4.945-1.112-7.221-7.112" fill="#fff"/></symbol><symbol viewBox="0 0 1792 1792"><path d="M512 0q13 0 22.5 9.5T544 32v1472q0 20-17 28L47 1788q-7 4-15 4-13 0-22.5-9.5T0 1760V288q0-20 17-28L497 4q7-4 15-4zm1248 0q13 0 22.5 9.5T1792 32v1472q0 20-17 28l-480 256q-7 4-15 4-13 0-22.5-9.5t-9.5-22.5V288q0-20 17-28L1745 4q7-4 15-4zM640 0q8 0 14 3l512 256q18 10 18 29v1472q0 13-9.5 22.5t-22.5 9.5q-8 0-14-3l-512-256q-18-10-18-29V32q0-13 9.5-22.5T640 0z" fill="#fff"/></symbol><symbol viewBox="0 0 893.4 893.4"><g fill="#FFF"><path d="M539.001 137.4l-30.1 82.8H569.8z"/><path d="M747.3 893.4c13.801 0 25-11.2 25-25V25c0-13.8-11.199-25-25-25H146.101c-13.8 0-25 11.2-25 25v700.5H234c30.3 0 55 24.7 55 55v112.9h458.3zM426.8 297.2l80-205.5c3.701-9.6 13-15.9 23.301-15.9h19c10.199 0 19.4 6.2 23.199 15.7l82.4 205.6c3.9 9.9-3.299 20.6-13.9 20.6h-16.398c-10.301 0-19.602-6.4-23.301-16l-14.699-38.2h-93.4L479.3 301.3c-3.6 9.9-13 16.5-23.5 16.5h-15c-10.599-.1-17.8-10.7-14-20.6zm-170.3 84.2h380.401c13.799 0 25 11.199 25 25 0 13.8-11.201 25-25 25H256.5c-13.8 0-25-11.2-25-25s11.201-25 25-25zm0 112.1h380.401c13.799 0 25 11.2 25 25s-11.201 25-25 25H256.5c-13.8 0-25-11.2-25-25s11.201-25 25-25zm0 162.1c-13.8 0-25-11.199-25-25 0-13.8 11.2-25 25-25h380.401c13.799 0 25 11.2 25 25 0 13.801-11.201 25-25 25H256.5z"/><path d="M121.101 755.5L259 893.4V780.5c0-13.8-11.2-25-25-25H121.101z"/></g></symbol><symbol viewBox="0 0 1792 1792"><path d="M192 1664h1408V640H192v1024zM576 448V160q0-14-9-23t-23-9h-64q-14 0-23 9t-9 23v288q0 14 9 23t23 9h64q14 0 23-9t9-23zm768 0V160q0-14-9-23t-23-9h-64q-14 0-23 9t-9 23v288q0 14 9 23t23 9h64q14 0 23-9t9-23zm384-64v1280q0 52-38 90t-90 38H192q-52 0-90-38t-38-90V384q0-52 38-90t90-38h128v-96q0-66 47-113T480 0h64q66 0 113 47t47 113v96h384v-96q0-66 47-113t113-47h64q66 0 113 47t47 113v96h128q52 0 90 38t38 90z" fill="#fff"/></symbol><symbol viewBox="0 0 90.55 90.491997"><path d="M22.039.015h38.522c.601 0 1.765.064 3.49.194 1.723.129 3.704.432 5.946.905 2.24.475 4.567 1.228 6.98 2.263 2.412 1.034 4.631 2.456 6.657 4.266 2.023 1.81 3.685 4.072 4.977 6.787 1.292 2.714 1.939 6.011 1.939 9.889 0 4.223-.775 7.95-2.327 11.182s-3.663 5.946-6.334 8.145c-2.673 2.197-5.84 3.877-9.501 5.041-3.664 1.164-7.562 1.746-11.699 1.746-3.535 0-7.413-.43-11.635-1.293v-2.714c.948.087 1.854.13 2.715.13h2.327c7.67 0 13.573-1.681 17.71-5.042 4.137-3.361 6.205-9.091 6.205-17.193 0-6.722-1.681-11.764-5.042-15.125-1.983-1.723-4.581-2.883-8.135-3.121-2.74-.184-5.214-.169-8.053-.212H43.853l-.289-.043v78.855l10.342 1.938v3.879h-32.06v-3.879l10.342-1.938V5.817H20.553l-12.927.647-2.843 11.634H0L.646.517.904 0h59.927" fill="#fff"/></symbol></svg>