<svg xmlns="http://www.w3.org/2000/svg"><symbol id="devilry" viewBox="0 0 2048 1792"><path d="M1943 952q0 31-31 66l-336 396q-43 51-120.5 86.5T1312 1536H224q-34 0-60.5-13t-26.5-43q0-31 31-66l336-396q43-51 120.5-86.5T768 896h1088q34 0 60.5 13t26.5 43zm-343-344v160H768q-94 0-197 47.5T407 935L70 1331l-5 6q0-4-.5-12.5T64 1312V352q0-92 66-158t158-66h320q92 0 158 66t66 158v32h544q92 0 158 66t66 158z" fill="#fff"/></symbol><symbol id="fagsider" viewBox="0 0 1792 1792"><path d="M1703 478q40 57 18 129l-275 906q-19 64-76.5 107.5T1247 1664H324q-77 0-148.5-53.5T76 1479q-24-67-2-127 0-4 3-27t4-37q1-8-3-21.5t-3-19.5q2-11 8-21t16.5-23.5T116 1179q23-38 45-91.5t30-91.5q3-10 .5-30t-.5-28q3-11 17-28t17-23q21-36 42-92t25-90q1-9-2.5-32t.5-28q4-13 22-30.5t22-22.5q19-26 42.5-84.5T404 411q1-8-3-25.5t-2-26.5q2-8 9-18t18-23 17-21q8-12 16.5-30.5t15-35 16-36 19.5-32 26.5-23.5 36-11.5T620 134l-1 3q38-9 51-9h761q74 0 114 56t18 130l-274 906q-36 119-71.5 153.5T1089 1408H220q-27 0-38 15-11 16-1 43 24 70 144 70h923q29 0 56-15.5t35-41.5l300-987q7-22 5-57 38 15 59 43zm-1064 2q-4 13 2 22.5t20 9.5h608q13 0 25.5-9.5T1311 480l21-64q4-13-2-22.5t-20-9.5H702q-13 0-25.5 9.5T660 416zm-83 256q-4 13 2 22.5t20 9.5h608q13 0 25.5-9.5T1228 736l21-64q4-13-2-22.5t-20-9.5H619q-13 0-25.5 9.5T577 672z" fill="#fff"/></symbol><symbol id="fronter" viewBox="0 0 3000 3000"><path d="M803 2929c-74-14-169-67-227-125-159-158-178-403-46-586 34-48 234-221 441-383l38-30 1-227c0-126-3-228-7-228s-19 12-35 27c-15 14-30 24-33 21s-39-72-80-153c-87-172-93-144 56-261l99-79V673c0-248 7-308 47-387 33-66 118-147 190-182 54-27 66-29 178-29 117 0 121 1 182 33 230 125 298 408 147 613-19 26-117 113-219 195l-185 149v457l24-19c13-10 46-36 72-58 27-22 150-123 274-224s240-197 258-213c48-41 137-83 220-103 118-29 290-11 349 37 8 7-10 51-68 166l-80 157-56-3c-65-5-118 16-148 56-19 25-20 47-25 307-4 235-8 285-21 310-50 91-171 124-254 69-76-49-79-59-85-242l-5-163-227 183-227 183-1 295c0 223-4 306-14 341-72 237-297 375-533 328zm144-346c52-24 63-60 63-208 0-69-2-125-5-125s-34 24-69 53c-34 30-77 64-94 77-67 50-78 132-24 182 45 42 75 47 129 21zm467-2005c85-68 99-103 58-150-18-22-71-23-98-4-16 12-20 29-22 105-2 50-1 91 3 91 3 0 30-19 59-42z" fill="#fff" id="path2"/></symbol><symbol id="inspera" viewBox="0 0 44.997711 32.6339"><defs><clipPath id="b"><use width="100%" height="100%"/></clipPath></defs><g clip-path="url(#b)" transform="translate(-23.52 -4.786)"><path d="M59.988 4.787c.267-.005.538.004.81.026 1.105.06 2.14.36 3.192.867 1 .538 1.884 1.207 2.56 2.05a8.078 8.078 0 0 1 1.554 2.782c.326.995.458 2.037.4 3.144a8.472 8.472 0 0 1-.893 3.174 8.395 8.395 0 0 1-2.024 2.574c-.858.7-1.79 1.226-2.785 1.547-1.03.337-2.06.452-3.165.396-1.072-.078-2.132-.395-3.156-.883-1.026-.55-1.884-1.206-2.6-2.05a8.91 8.91 0 0 1-1.548-2.776 8.084 8.084 0 0 1-.39-3.162 8.187 8.187 0 0 1 .882-3.15 8.322 8.322 0 0 1 2.04-2.598 7.539 7.539 0 0 1 2.777-1.534 8.002 8.002 0 0 1 2.348-.406zm-19.023 9.68c.2-.007.4-.004.6.008.832.062 1.626.297 2.408.67.78.424 1.438.93 1.976 1.56a6.121 6.121 0 0 1 1.148 2.106c.252.766.356 1.54.316 2.38-.048.806-.29 1.6-.666 2.402-.414.762-.914 1.427-1.547 1.96-.655.53-1.34.897-2.118 1.167a6.453 6.453 0 0 1-2.37.294 6.288 6.288 0 0 1-2.425-.674 6.386 6.386 0 0 1-1.957-1.553 6.409 6.409 0 0 1-1.156-2.084 6.095 6.095 0 0 1-.305-2.394c.057-.84.295-1.63.665-2.412.42-.78.924-1.436 1.547-1.962.635-.535 1.33-.93 2.105-1.147a5.99 5.99 0 0 1 1.778-.323zM28.45 26.953c.915-.065 1.79.13 2.685.56.846.458 1.537 1.058 2.033 1.833.49.78.76 1.6.822 2.52.04.91-.147 1.816-.58 2.675a5.268 5.268 0 0 1-1.814 2.04c-.775.494-1.61.77-2.528.828-.914.063-1.804-.14-2.675-.56-.874-.47-1.547-1.05-2.038-1.834a5.17 5.17 0 0 1-.824-2.526 5.03 5.03 0 0 1 .56-2.675 5.13 5.13 0 0 1 1.836-2.038 5.226 5.226 0 0 1 2.525-.822z" fill="#fff" id="a"/></g><path fill="none" d="M-49.29-25.556H9.943V24.83h-59.23z"/></symbol><symbol id="kantine" viewBox="0 0 540.201 540.201"><g fill="#FFF"><path d="M169.467 194.102v310.136c0 8.086 2.95 15.08 8.862 20.986 5.808 5.809 12.681 8.732 20.6 8.824 7.914-.092 14.792-3.016 20.606-8.824 5.906-5.906 8.855-12.9 8.855-20.986V194.102c8.862-3.103 42.081-32.711 42.081-42.204V27.161c0-4.033-1.481-7.534-4.431-10.49-2.956-2.95-6.457-4.431-10.49-4.431-4.045 0-7.54 1.481-10.49 4.431-2.956 2.962-4.431 6.457-4.431 10.49v96.99c0 4.045-1.481 7.54-4.431 10.49-2.956 2.956-6.451 4.425-10.49 4.425-4.045 0-7.54-1.469-10.49-4.425-2.95-2.95-4.431-6.451-4.431-10.49v-96.99c0-4.033-1.481-7.534-4.431-10.49-2.95-2.95-6.45-4.431-10.489-4.431-4.045 0-7.54 1.481-10.49 4.431-2.956 2.962-4.431 6.457-4.431 10.49v96.99c0 4.045-1.481 7.54-4.431 10.49-2.956 2.956-6.451 4.425-10.49 4.425-4.045 0-7.54-1.469-10.49-4.425-2.956-2.95-4.431-6.451-4.431-10.49v-96.99c0-4.033-1.475-7.534-4.431-10.49-2.95-2.95-6.45-4.431-10.49-4.431-4.045 0-7.54 1.481-10.489 4.431-2.95 2.962-4.431 6.457-4.431 10.49v124.732c.003 9.491 39.342 39.1 48.204 42.209z"/><path d="M199.308 534.08c-.129 0-.251-.037-.38-.037-.128 0-.245.037-.379.037h.759zM389.848 540.201c-.129 0-.25-.037-.379-.037s-.252.037-.379.037h.758z"/><path d="M326.139 268.588h33.869v241.771c0 8.084 2.949 15.08 8.855 20.984 5.812 5.809 12.686 8.734 20.605 8.826 7.912-.092 14.791-3.018 20.605-8.826 5.906-5.904 8.861-12.9 8.861-20.984V14.921c0-4.033-1.48-7.534-4.43-10.49C411.549 1.481 408.055 0 404.016 0h-10.723c-20.52 0-38.084 7.308-52.693 21.916-14.607 14.614-21.914 32.179-21.914 52.693v186.52c0 2.02.74 3.77 2.215 5.245 1.468 1.474 3.218 2.214 5.238 2.214z"/></g></symbol><symbol id="kursevaluering" viewBox="0 0 1792 1792"><path d="M1792 896q0 174-120 321.5t-326 233-450 85.5q-70 0-145-8-198 175-460 242-49 14-114 22-17 2-30.5-9t-17.5-29v-1q-3-4-.5-12t2-10 4.5-9.5l6-9 7-8.5 8-9q7-8 31-34.5t34.5-38 31-39.5 32.5-51 27-59 26-76q-157-89-247.5-220T0 896q0-130 71-248.5T262 443t286-136.5T896 256q244 0 450 85.5t326 233T1792 896z" fill="#fff"/></symbol><symbol id="mail" viewBox="0 0 103.17322 104.31332"><path d="M64.567 22.116v20.405l7.13 4.49c.188.054.596.058.784 0l30.688-20.69c0-2.45-2.284-4.205-3.573-4.205h-35.03z" id="path3" fill="#fff"/><path d="M64.567 50.133l6.507 4.47c.917.674 2.022 0 2.022 0-1.101.674 30.077-20.036 30.077-20.036V72.07c0 4.083-2.613 5.795-5.551 5.795h-33.06v-27.73z" id="path5" fill="#fff"/><g id="g23" transform="translate(-13.481 -41.384) scale(3.91787)" fill="#fff"><path d="M11.321 20.958c-.566 0-1.017.266-1.35.797-.333.531-.5 1.234-.5 2.109 0 .888.167 1.59.5 2.106.333.517.77.774 1.31.774.557 0 .999-.251 1.325-.753.326-.502.49-1.199.49-2.09 0-.929-.158-1.652-.475-2.169-.317-.516-.75-.774-1.3-.774z" id="path25"/><path d="M3.441 13.563v20.375l15.5 3.25V10.563l-15.5 3zm10.372 13.632c-.655.862-1.509 1.294-2.563 1.294-1.027 0-1.863-.418-2.51-1.253-.646-.836-.97-1.924-.97-3.266 0-1.417.328-2.563.985-3.438s1.527-1.313 2.61-1.313c1.023 0 1.851.418 2.482 1.256.632.838.948 1.942.948 3.313.001 1.409-.327 2.545-.982 3.407z" id="path27"/></g></symbol><symbol id="navet" viewBox="0 0 218.33479 53.413124"><g transform="matrix(1.33333 0 0 -1.33333 0 97.759)" id="g10"><g transform="scale(.1)" id="g12"><path id="path14" d="M.016 722.965s.414-272.922 0-281.672c-.418-8.75 7.078-50.828 21.25-69.164 14.168-18.336 31.668-27.504 42.082-29.586-1.25 23.75-2.082 296.25 1.25 318.336 23.336.836 57.086 7.086 66.254 8.336 9.164 1.25 57.492 12.492 79.164-11.672 6.25-7.078 20-18.328 22.5-59.578 1.668-41.25 2.086-244.168 2.086-253.75 13.75 0 63.332.414 63.332.414s.832 231.668-.418 255.836c-1.25 24.164-2.5 54.16-20.414 80.828-17.918 26.672-51.668 52.914-100.418 51.25-48.75-1.664-87.918-10-102.918-10s-73.75.422-73.75.422" fill="#fff"/><path id="path16" d="M597.934 541.293s-78.329-7.078-96.25-11.664c-17.918-4.586-78.754-20.836-75.418-72.5 3.336-51.664 32.5-64.582 73.75-64.164 41.25.414 68.75 17.914 98.75 42.914 0 24.164.004 92.914-.832 105.414zm9.168 172.504c45.828-25 49.168-57.082 54.168-92.5 5-35.414 1.664-270.418 1.664-287.082-44.164 18.332-52.914 49.582-55 59.582-5.414-8.328-42.082-36.25-70-50.418-27.914-14.168-83.332-15.414-117.082 2.5s-62.082 60.836-60.832 112.5 24.582 85.836 76.25 109.586 162.082 23.75 162.082 23.75 7.082 58.332-29.168 73.332c-23.75 10.418-49.164 10.418-62.5 10.418-30 0-57.914-8.75-62.914-8.75-22.918 1.25-51.25 49.164-51.25 49.164 80 19.164 152.496 27.5 214.582-2.082" fill="#fff"/><path id="path18" d="M702.516 722.129s108.754-290 112.918-301.25c4.168-11.25 22.925-74.586 83.336-85 5.41 13.336 146.24 386.25 146.24 386.25h-66.655S876.27 433.383 875.852 431.297c-10.422 32.082-75.418 212.5-80.418 226.25s-23.754 71.246-92.918 64.582" fill="#fff"/><path id="path20" d="M1126.67 575.047h199.18s.41 54.168-22.93 77.918c-23.32 23.75-48.73 27.082-70.41 27.082-21.66 0-52.5-3.75-76.25-31.25s-29.59-54.578-29.59-73.75zm124.18-183.75c46.25 0 73.32 14.168 89.57 22.082 31.25-18.75 37.09-38.332 40.02-47.082-112.09-59.168-317.09-54.168-320 163.75 0 5.836-3.34 88.332 44.16 143.332s99.59 59.168 130 59.168c30.41 0 77.09-2.5 119.16-49.582 42.09-47.086 34.59-158.336 34.59-158.336h-261.66c-3.34-112.082 77.91-133.332 124.16-133.332" fill="#fff"/><path id="path22" d="M1401.26 721.715h183.34s37.07-8.336 52.91-53.336h-118.34V458.797s-.82-57.5 35.43-65 64.59 2.496 75 9.582c3.75 2.918 7.07 1.668 7.07 1.668v-27.918-30c-3.75-1.664-20.41-12.914-67.91-12.914s-113.34 14.164-113.34 121.25v212.914s-37.09 8.336-54.16 53.336" fill="#fff"/></g></g></symbol><symbol id="romkart" viewBox="0 0 1792 1792"><path d="M512 0q13 0 22.5 9.5T544 32v1472q0 20-17 28L47 1788q-7 4-15 4-13 0-22.5-9.5T0 1760V288q0-20 17-28L497 4q7-4 15-4zm1248 0q13 0 22.5 9.5T1792 32v1472q0 20-17 28l-480 256q-7 4-15 4-13 0-22.5-9.5t-9.5-22.5V288q0-20 17-28L1745 4q7-4 15-4zM640 0q8 0 14 3l512 256q18 10 18 29v1472q0 13-9.5 22.5t-22.5 9.5q-8 0-14-3l-512-256q-18-10-18-29V32q0-13 9.5-22.5T640 0z" fill="#fff"/></symbol><symbol id="sprite"><symbol id="devilry" viewBox="0 0 2048 1792"><path d="M1943 952q0 31-31 66l-336 396q-43 51-120.5 86.5T1312 1536H224q-34 0-60.5-13t-26.5-43q0-31 31-66l336-396q43-51 120.5-86.5T768 896h1088q34 0 60.5 13t26.5 43zm-343-344v160H768q-94 0-197 47.5T407 935L70 1331l-5 6q0-4-.5-12.5T64 1312V352q0-92 66-158t158-66h320q92 0 158 66t66 158v32h544q92 0 158 66t66 158z" fill="#fff"/></symbol></symbol><symbol id="studentweb" viewBox="0 0 893.4 893.4"><g fill="#FFF"><path d="M539.001 137.4l-30.1 82.8H569.8z"/><path d="M747.3 893.4c13.801 0 25-11.2 25-25V25c0-13.8-11.199-25-25-25H146.101c-13.8 0-25 11.2-25 25v700.5H234c30.3 0 55 24.7 55 55v112.9h458.3zM426.8 297.2l80-205.5c3.701-9.6 13-15.9 23.301-15.9h19c10.199 0 19.4 6.2 23.199 15.7l82.4 205.6c3.9 9.9-3.299 20.6-13.9 20.6h-16.398c-10.301 0-19.602-6.4-23.301-16l-14.699-38.2h-93.4L479.3 301.3c-3.6 9.9-13 16.5-23.5 16.5h-15c-10.599-.1-17.8-10.7-14-20.6zm-170.3 84.2h380.401c13.799 0 25 11.199 25 25 0 13.8-11.201 25-25 25H256.5c-13.8 0-25-11.2-25-25s11.201-25 25-25zm0 112.1h380.401c13.799 0 25 11.2 25 25s-11.201 25-25 25H256.5c-13.8 0-25-11.2-25-25s11.201-25 25-25zm0 162.1c-13.8 0-25-11.199-25-25 0-13.8 11.2-25 25-25h380.401c13.799 0 25 11.2 25 25 0 13.801-11.201 25-25 25H256.5z"/><path d="M121.101 755.5L259 893.4V780.5c0-13.8-11.2-25-25-25H121.101z"/></g></symbol><symbol id="timeplan" viewBox="0 0 1792 1792"><path d="M192 1664h1408V640H192v1024zM576 448V160q0-14-9-23t-23-9h-64q-14 0-23 9t-9 23v288q0 14 9 23t23 9h64q14 0 23-9t9-23zm768 0V160q0-14-9-23t-23-9h-64q-14 0-23 9t-9 23v288q0 14 9 23t23 9h64q14 0 23-9t9-23zm384-64v1280q0 52-38 90t-90 38H192q-52 0-90-38t-38-90V384q0-52 38-90t90-38h128v-96q0-66 47-113T480 0h64q66 0 113 47t47 113v96h384v-96q0-66 47-113t113-47h64q66 0 113 47t47 113v96h128q52 0 90 38t38 90z" fill="#fff"/></symbol><symbol id="tp" viewBox="0 0 90.55 90.491997"><g id="g30" transform="translate(-96.54 -84.843)"><path d="M118.579 84.858h38.522c.601 0 1.765.064 3.49.194 1.723.129 3.704.432 5.946.905 2.24.475 4.567 1.228 6.98 2.263 2.412 1.034 4.631 2.456 6.657 4.266 2.023 1.81 3.685 4.072 4.977 6.787 1.292 2.714 1.939 6.011 1.939 9.889 0 4.223-.775 7.95-2.327 11.182s-3.663 5.946-6.334 8.145c-2.673 2.197-5.84 3.877-9.501 5.041-3.664 1.164-7.562 1.746-11.699 1.746-3.535 0-7.413-.43-11.635-1.293v-2.714c.948.087 1.854.13 2.715.13h2.327c7.67 0 13.573-1.681 17.71-5.042 4.137-3.361 6.205-9.091 6.205-17.193 0-6.722-1.681-11.764-5.042-15.125-1.983-1.723-4.581-2.883-8.135-3.121-2.74-.184-5.214-.169-8.053-.212h-12.928l-.289-.043v78.855l10.342 1.938v3.879h-32.06v-3.879l10.342-1.938V90.66h-11.635l-12.927.647-2.843 11.634H96.54l.646-17.581.258-.517h59.927" id="path28" fill="#fff"/></g></symbol></svg>